<?xml version="1.0" encoding="UTF-8"?>
<!DOCTYPE svg PUBLIC "-//W3C//DTD SVG 1.1//EN" "http://www.w3.org/Graphics/SVG/1.1/DTD/svg11.dtd">
<svg xmlns="http://www.w3.org/2000/svg" xmlns:xlink="http://www.w3.org/1999/xlink" version="1.1" width="1025px" height="1025px" viewBox="-0.5 -0.5 1025 1025"><defs><linearGradient x1="0%" y1="0%" x2="0%" y2="100%" id="mx-gradient-116d5b-1-4ab29a-1-s-0"><stop offset="0%" style="stop-color: rgb(17, 109, 91); stop-opacity: 1;"/><stop offset="100%" style="stop-color: rgb(74, 178, 154); stop-opacity: 1;"/></linearGradient></defs><g><rect x="0" y="0" width="1024" height="1024" fill="none" stroke="none" pointer-events="all"/><path d="M 650.54 644.98 C 650.54 656.22 641.38 665.38 630.16 665.38 C 618.92 665.38 609.76 656.22 609.76 644.98 C 609.76 633.76 618.92 624.6 630.16 624.6 C 641.38 624.6 650.54 633.76 650.54 644.98 Z M 717.22 230.05 C 705.98 230.05 696.81 220.92 696.81 209.67 C 696.81 198.41 705.98 189.27 717.22 189.27 C 728.46 189.27 737.62 198.41 737.62 209.67 C 737.62 220.92 728.46 230.05 717.22 230.05 Z M 638.12 433.55 C 638.12 444.79 628.96 453.93 617.72 453.93 C 606.47 453.93 597.31 444.79 597.31 433.55 C 597.31 422.31 606.47 413.14 617.72 413.14 C 628.96 413.14 638.12 422.31 638.12 433.55 Z M 746.55 794.25 C 746.55 783 755.72 773.84 766.96 773.84 C 778.23 773.84 787.36 783 787.36 794.25 C 787.36 805.47 778.23 814.63 766.96 814.63 C 755.72 814.63 746.55 805.47 746.55 794.25 Z M 848.9 679.06 C 841.62 683.13 837.1 690.83 837.1 699.21 L 837.1 842.44 L 671.94 940.11 L 671.94 823.6 L 707.41 823.6 C 718.33 845.61 740.77 860.9 766.96 860.9 C 803.72 860.9 833.63 831.01 833.63 794.25 C 833.63 757.49 803.72 727.57 766.96 727.57 C 736.1 727.57 710.28 748.79 702.74 777.33 L 648.81 777.33 C 636.02 777.33 625.67 787.68 625.67 800.47 L 625.67 967.46 L 616.3 973.01 L 535.15 925.98 L 535.15 326.09 L 600.8 326.09 L 600.8 369.33 C 572.26 376.87 551.04 402.66 551.04 433.55 C 551.04 470.31 580.95 500.2 617.72 500.2 C 654.48 500.2 684.39 470.31 684.39 433.55 C 684.39 407.36 669.07 384.9 647.07 374 L 647.07 326.09 L 723.42 326.09 C 736.21 326.09 746.55 315.75 746.55 302.95 L 746.55 269.22 C 768.58 258.33 783.89 235.84 783.89 209.67 C 783.89 172.91 753.98 143 717.22 143 C 680.46 143 650.54 172.91 650.54 209.67 C 650.54 240.56 671.76 266.35 700.28 273.89 L 700.28 279.82 L 535.15 279.82 L 535.15 112.27 L 636.89 51.34 L 849.55 180.98 L 849.57 323.59 C 849.57 331.94 854.04 339.62 861.28 343.74 L 973.92 407.59 L 973.95 478.8 L 760.76 478.8 C 747.97 478.8 737.62 489.17 737.62 501.94 L 737.62 615.62 L 689.71 615.62 C 678.81 593.62 656.35 578.33 630.16 578.33 C 593.4 578.33 563.49 608.22 563.49 644.98 C 563.49 681.74 593.4 711.65 630.16 711.65 C 661.05 711.65 686.82 690.44 694.38 661.89 L 760.76 661.89 C 773.53 661.89 783.89 651.55 783.89 638.76 L 783.89 525.07 L 973.95 525.07 L 973.95 608.66 Z M 356.52 612.15 C 367.77 612.15 376.93 621.31 376.93 632.56 C 376.93 643.8 367.77 652.96 356.52 652.96 C 345.28 652.96 336.12 643.8 336.12 632.56 C 336.12 621.31 345.28 612.15 356.52 612.15 Z M 323.69 246.99 C 323.69 235.75 332.85 226.58 344.1 226.58 C 355.32 226.58 364.48 235.75 364.48 246.99 C 364.48 258.23 355.32 267.39 344.1 267.39 C 332.85 267.39 323.69 258.23 323.69 246.99 Z M 240.11 433.55 C 240.11 444.79 230.94 453.93 219.7 453.93 C 208.48 453.93 199.32 444.79 199.32 433.55 C 199.32 422.31 208.48 413.14 219.7 413.14 C 230.94 413.14 240.11 422.31 240.11 433.55 Z M 360.99 831.54 C 360.99 820.3 370.15 811.16 381.39 811.16 C 392.66 811.16 401.8 820.3 401.8 831.54 C 401.8 842.81 392.66 851.95 381.39 851.95 C 370.15 851.95 360.99 842.81 360.99 831.54 Z M 395.04 972.87 L 174.43 842.39 L 174.45 699.19 C 174.45 690.76 169.87 682.99 162.47 678.92 L 154.18 674.36 L 215.24 674.36 L 215.24 837.76 C 215.24 850.56 225.58 860.9 238.37 860.9 L 321.84 860.9 C 332.74 882.9 355.2 898.22 381.39 898.22 C 418.15 898.22 448.07 868.3 448.07 831.54 C 448.07 794.8 418.15 764.89 381.39 764.89 C 350.53 764.89 324.71 786.1 317.17 814.63 L 261.51 814.63 L 261.51 651.23 C 261.51 638.43 251.14 628.09 238.37 628.09 L 70.04 628.09 L 50.08 617.1 L 50.05 407.57 L 162.7 343.69 C 169.96 339.58 174.43 331.89 174.43 323.54 L 174.45 263.88 L 202.79 263.88 L 202.79 369.33 C 174.26 376.87 153.05 402.66 153.05 433.55 C 153.05 470.31 182.94 500.2 219.7 500.2 C 256.46 500.2 286.38 470.31 286.38 433.55 C 286.38 407.38 271.08 384.92 249.06 374 L 249.06 263.88 L 279.88 263.88 C 287.42 292.45 313.21 313.66 344.1 313.66 C 380.86 313.66 410.75 283.75 410.75 246.99 C 410.75 210.23 380.86 180.31 344.1 180.31 C 317.93 180.31 295.45 195.61 284.55 217.61 L 174.45 217.61 L 174.45 180.94 L 387.08 51.31 L 488.88 112.25 L 488.88 379.32 L 350.3 379.32 C 337.53 379.32 327.16 389.66 327.16 402.46 L 327.16 573.01 C 305.16 583.88 289.85 606.37 289.85 632.56 C 289.85 669.32 319.76 699.23 356.52 699.23 C 393.28 699.23 423.2 669.32 423.2 632.56 C 423.2 601.67 401.98 575.88 373.43 568.33 L 373.43 425.59 L 488.88 425.59 L 488.88 917.05 Z M 1020.19 394.13 C 1020.19 385.8 1015.71 378.12 1008.46 374 L 895.84 310.12 L 895.82 168.01 C 895.82 159.93 891.61 152.46 884.72 148.25 L 649.06 4.56 C 641.71 0.09 632.52 0.02 625.12 4.44 L 512.03 72.16 L 398.86 4.44 C 391.46 0 382.25 0.05 374.94 4.53 L 139.26 148.2 C 132.39 152.41 128.18 159.89 128.18 167.96 L 128.16 310.08 L 15.51 373.98 C 8.25 378.09 3.78 385.78 3.78 394.1 L 3.81 630.77 C 3.81 639.22 8.39 646.97 15.77 651.04 L 128.18 712.86 L 128.16 855.6 C 128.16 863.77 132.46 871.33 139.52 875.5 L 383.31 1019.67 C 390.62 1024 399.62 1024 406.93 1019.65 L 504.42 961.65 L 604.81 1019.81 C 608.39 1021.89 612.42 1022.94 616.4 1022.94 C 620.47 1022.94 624.54 1021.85 628.17 1019.7 L 872.01 875.54 C 879.07 871.38 883.37 863.81 883.37 855.62 L 883.37 712.74 L 1008.42 642.34 C 1015.71 638.25 1020.22 630.54 1020.22 622.19 Z" fill="url(#mx-gradient-116d5b-1-4ab29a-1-s-0)" stroke="none" pointer-events="all"/></g></svg>