<svg width="49" height="49" xmlns="http://www.w3.org/2000/svg" xmlns:xlink="http://www.w3.org/1999/xlink" xml:space="preserve" overflow="hidden"><defs><clipPath id="clip0"><rect x="368" y="528" width="49" height="49"/></clipPath></defs><g clip-path="url(#clip0)" transform="translate(-368 -528)"><path d="M383.122 566.863C382.892 567.102 382.582 567.238 382.25 567.245 381.91 567.23 381.603 567.128 381.364 566.898 380.87 566.423 380.855 565.635 381.33 565.141 381.56 564.902 381.869 564.766 382.201 564.759L382.227 564.759C382.549 564.759 382.854 564.883 383.087 565.106 383.326 565.337 383.462 565.646 383.469 565.978 383.475 566.31 383.353 566.624 383.122 566.863ZM379.859 563.726C378.603 565.032 378.644 567.114 379.949 568.37 380.565 568.963 381.37 569.287 382.224 569.287L382.291 569.287C383.168 569.268 383.986 568.911 384.593 568.279 385.202 567.647 385.526 566.815 385.51 565.938 385.493 565.06 385.135 564.244 384.503 563.635 383.199 562.38 381.113 562.42 379.859 563.726ZM388.169 569.68 386.173 569.278C385.897 569.224 385.602 569.287 385.37 569.456L384.347 570.204C384.119 570.373 383.97 570.628 383.937 570.91L383.7 572.921 380.748 572.918 380.514 570.922C380.481 570.641 380.335 570.387 380.108 570.22L379.073 569.454C378.841 569.281 378.549 569.218 378.265 569.273L376.287 569.669 375.376 566.859 377.231 566.009C377.489 565.89 377.687 565.668 377.775 565.397L378.164 564.206C378.252 563.934 378.223 563.638 378.083 563.39L377.086 561.613 379.478 559.879 380.847 561.365C381.041 561.576 381.283 561.671 381.603 561.696L382.891 561.688C383.174 561.685 383.444 561.567 383.636 561.358L384.995 559.884 387.383 561.621 386.389 563.389C386.25 563.636 386.22 563.929 386.306 564.2L386.69 565.403C386.778 565.677 386.976 565.901 387.237 566.022L389.085 566.87 388.169 569.68ZM390.762 565.394 388.499 564.354 388.387 564.002 389.609 561.83C389.862 561.379 389.736 560.81 389.319 560.504L385.462 557.697C385.043 557.392 384.462 557.449 384.11 557.831L382.435 559.649 382.042 559.651 380.364 557.828C380.013 557.445 379.43 557.39 379.014 557.693L375.152 560.495C374.732 560.799 374.607 561.369 374.861 561.822L376.084 563.999 375.973 564.339 373.7 565.382C373.229 565.598 372.995 566.131 373.154 566.625L374.625 571.164C374.784 571.657 375.284 571.952 375.796 571.85L378.222 571.364 378.538 571.598 378.824 574.056C378.885 574.569 379.32 574.957 379.837 574.958L384.608 574.963 384.609 574.963C385.126 574.963 385.562 574.576 385.622 574.061L385.912 571.59 386.213 571.369 388.659 571.86C389.16 571.965 389.67 571.667 389.83 571.175L391.308 566.638C391.469 566.146 391.234 565.61 390.762 565.394ZM405.575 571.896 407.617 571.896 407.617 572.941C407.617 574.053 406.712 574.958 405.601 574.958L390.263 574.958 390.263 572.917 405.601 572.917 405.575 571.896ZM381.075 556.583 379.034 556.583 379.034 536.141C379.034 535.029 379.939 534.125 381.051 534.125L382.096 534.125 382.096 536.167 381.051 536.167 381.075 556.583ZM388.221 544.333 396.388 544.333 396.388 542.292 388.221 542.292 388.221 544.333ZM388.221 554.542 400.471 554.542 400.471 552.5 388.221 552.5 388.221 554.542ZM388.221 549.438 405.575 549.438 405.575 547.396 388.221 547.396 388.221 549.438ZM402.513 539.229 402.513 533.203 408.467 539.229 402.513 539.229ZM411.405 539.297 402.558 530.345C402.367 530.151 402.106 530.042 401.832 530.042L385.134 530.042C384.023 530.042 383.117 530.946 383.117 532.058L383.117 555.562 385.159 555.562 385.134 532.083 400.471 532.083 400.471 540.25C400.471 540.813 400.928 541.271 401.492 541.271L409.659 541.271 409.659 540.434 409.684 568.833 392.305 568.833 392.305 570.875 409.684 570.875C410.795 570.875 411.7 569.97 411.7 568.858L411.7 540.014C411.7 539.747 411.595 539.488 411.405 539.297Z" fill="#FFFFFF" fill-rule="evenodd" fill-opacity="1"/></g></svg>